<?xml version="1.0" standalone="no"?>
<!DOCTYPE svg PUBLIC "-//W3C//DTD SVG 20010904//EN"
 "http://www.w3.org/TR/2001/REC-SVG-20010904/DTD/svg10.dtd">
<svg version="1.0" xmlns="http://www.w3.org/2000/svg"
 width="1500.000000pt" height="2164.000000pt" viewBox="0 0 1500.000000 2164.000000"
 preserveAspectRatio="xMidYMid meet">
<metadata>
Created by potrace 1.15, written by Peter Selinger 2001-2017
</metadata>
<g transform="translate(0.000000,2164.000000) scale(0.100000,-0.100000)"
fill="#000000" stroke="none">
<path d="M380 20060 l0 -460 150 0 c160 0 201 9 248 53 46 42 52 68 52 210 0
133 0 134 -30 175 -17 23 -35 42 -41 42 -5 0 3 17 20 38 16 20 34 55 40 77 25
94 3 220 -46 267 -51 49 -89 58 -248 58 l-145 0 0 -460z m262 293 c22 -25 30
-84 19 -133 -12 -54 -17 -58 -74 -66 l-47 -7 0 112 0 111 43 0 c29 0 49 -6 59
-17z m10 -370 c15 -13 18 -32 18 -113 0 -113 -5 -121 -80 -128 l-50 -5 0 132
0 131 47 0 c29 0 53 -6 65 -17z"/>
<path d="M1130 13610 c0 -3800 0 -6913 -1 -6917 0 -4 3 -9 8 -10 5 -2 16 16
25 39 43 112 85 206 156 348 l77 155 6 1100 c3 605 8 1982 9 3060 2 1078 6
1913 10 1855 15 -212 91 -719 156 -1035 154 -741 361 -1354 664 -1965 100
-201 214 -407 274 -495 12 -16 26 -38 31 -47 38 -65 170 -250 236 -329 l38
-46 -118 -239 c-120 -242 -210 -426 -295 -609 -26 -55 -66 -138 -88 -185 -22
-47 -51 -107 -63 -135 -12 -27 -36 -79 -52 -115 -39 -84 -156 -345 -195 -435
-17 -38 -42 -95 -55 -125 -14 -30 -29 -66 -33 -80 -5 -14 -29 -74 -55 -135
-53 -124 -97 -232 -129 -320 -13 -33 -32 -82 -43 -110 -31 -76 -82 -213 -182
-486 -17 -47 -31 -91 -31 -97 0 -6 -13 -46 -29 -89 -27 -73 -60 -182 -130
-418 -67 -228 -129 -502 -178 -780 l-28 -160 -3 -1848 -2 -1847 6380 0 6380 0
0 9705 0 9705 -6370 0 -6370 0 0 -6910z m3740 6321 l0 -308 -47 -25 c-27 -14
-214 -116 -418 -228 -203 -111 -392 -215 -420 -230 -27 -15 -70 -39 -95 -52
-25 -14 -76 -42 -115 -63 -38 -21 -88 -48 -110 -60 -22 -12 -202 -111 -400
-220 -198 -109 -371 -204 -385 -211 -23 -13 -27 -12 -45 10 -47 56 -236 282
-340 406 -224 268 -248 297 -333 400 -48 58 -125 151 -172 206 -47 56 -134
162 -195 235 -181 218 -216 260 -298 357 l-79 92 1726 0 1726 0 0 -309z m4590
304 c0 -3 -17 -29 -37 -58 -20 -28 -65 -92 -98 -142 -34 -49 -108 -157 -164
-240 -114 -168 -408 -604 -431 -640 -8 -13 -49 -74 -91 -137 -75 -112 -465
-701 -604 -913 -247 -377 -443 -678 -570 -875 -111 -173 -161 -250 -196 -304
-22 -32 -39 -60 -39 -62 0 -2 -26 -43 -58 -91 -53 -81 -163 -251 -187 -291
-30 -49 -141 -223 -166 -259 -16 -23 -29 -44 -29 -48 0 -4 -13 -25 -28 -48
-72 -107 -92 -138 -92 -143 0 -3 -13 -24 -28 -47 -42 -62 -88 -134 -192 -302
-51 -82 -107 -172 -125 -200 -17 -27 -62 -99 -100 -160 -37 -60 -94 -152 -126
-203 -33 -51 -59 -96 -59 -99 0 -3 -10 -20 -23 -37 -13 -17 -50 -75 -83 -130
-32 -54 -68 -113 -79 -130 -11 -18 -54 -88 -95 -155 -41 -68 -82 -135 -91
-150 -34 -54 -362 -598 -381 -631 -11 -19 -29 -47 -39 -62 -11 -14 -19 -29
-19 -33 0 -3 -13 -26 -30 -50 -16 -24 -30 -47 -30 -52 0 -4 -7 -17 -15 -27
-13 -17 -15 385 -15 3352 l0 3372 2160 0 c1188 0 2160 -2 2160 -5z m4130 -847
l0 -853 -198 -64 c-310 -100 -590 -192 -677 -221 -44 -15 -172 -57 -285 -94
-226 -73 -645 -210 -955 -311 -110 -36 -274 -90 -363 -119 l-164 -54 -20 47
c-18 43 -32 76 -93 236 -13 33 -33 85 -45 115 -13 30 -36 89 -53 130 -16 41
-40 100 -52 130 -13 30 -44 109 -70 175 -26 66 -57 145 -70 175 -13 30 -40 98
-60 150 -20 52 -49 127 -65 165 -33 81 -78 193 -119 297 -74 186 -90 227 -112
278 -12 30 -35 89 -52 130 -16 41 -42 108 -58 148 -79 197 -93 232 -115 291
-14 35 -29 72 -35 82 -9 19 28 19 1826 19 l1835 0 0 -852z m-3918 627 c17 -44
41 -107 53 -140 13 -33 42 -109 65 -170 24 -60 53 -137 65 -170 13 -33 39
-103 60 -155 20 -52 49 -129 65 -170 16 -41 45 -118 66 -170 20 -52 47 -122
59 -155 13 -33 39 -103 60 -155 50 -129 93 -243 120 -315 12 -33 34 -89 48
-125 14 -36 40 -103 58 -150 18 -47 44 -116 59 -155 15 -38 42 -108 60 -155
18 -47 47 -123 65 -170 39 -100 81 -209 130 -340 51 -135 67 -170 76 -170 5 0
25 7 46 16 21 9 63 27 93 40 30 13 136 58 235 99 99 42 205 86 235 99 30 13
87 38 125 54 39 17 142 60 230 97 170 72 285 121 375 160 54 24 133 57 390
164 69 29 159 68 200 87 42 19 79 34 83 34 3 0 30 11 59 24 29 14 82 37 118
51 98 40 166 69 260 110 47 20 110 47 140 60 30 13 92 39 138 58 45 19 82 34
82 33 0 -9 -72 -211 -88 -246 -175 -388 -317 -674 -530 -1070 -19 -36 -57
-108 -85 -160 -27 -52 -53 -99 -57 -105 -4 -5 -22 -37 -40 -70 -68 -125 -158
-286 -238 -425 -30 -52 -65 -113 -77 -135 -12 -22 -39 -69 -60 -105 -20 -36
-46 -79 -56 -97 -10 -17 -29 -50 -43 -72 -15 -22 -26 -43 -26 -46 0 -4 -13
-26 -30 -50 -16 -24 -30 -46 -30 -49 0 -3 -39 -70 -86 -148 -47 -79 -95 -159
-106 -178 -11 -19 -29 -47 -39 -62 -11 -14 -19 -29 -19 -33 0 -4 -8 -19 -19
-33 -10 -15 -28 -43 -39 -62 -42 -74 -148 -246 -169 -277 -13 -17 -23 -34 -23
-36 0 -5 -72 -123 -155 -252 -17 -27 -78 -124 -135 -215 -57 -91 -133 -210
-168 -265 -36 -55 -90 -138 -120 -185 -30 -47 -94 -143 -141 -215 -47 -71 -88
-134 -90 -138 -4 -11 -272 -410 -422 -630 -106 -156 -161 -235 -298 -433 -30
-44 -64 -92 -76 -109 -11 -16 -58 -83 -105 -149 -100 -139 -190 -267 -225
-316 -13 -19 -56 -78 -95 -130 -39 -52 -78 -106 -88 -120 -67 -98 -613 -820
-767 -1015 -659 -831 -1144 -1404 -1676 -1976 -313 -336 -896 -917 -1174
-1169 -27 -25 -74 -68 -105 -96 -310 -286 -699 -600 -1205 -975 -78 -58 -349
-238 -473 -314 -655 -407 -1234 -662 -1814 -799 -171 -41 -488 -86 -655 -94
l-154 -7 6 60 c11 106 54 317 86 425 50 167 150 464 187 557 11 26 36 91 57
143 20 52 49 124 65 160 15 36 42 101 60 145 64 157 304 687 422 935 85 177
543 1095 636 1275 117 226 235 451 283 540 23 44 56 107 74 140 63 121 138
261 155 290 10 17 43 80 75 140 57 108 84 159 146 273 18 31 45 82 62 112 16
30 42 78 57 105 41 76 89 163 125 230 18 33 43 78 55 100 20 35 53 95 202 365
17 30 41 73 53 95 12 22 54 99 95 170 40 72 82 148 94 170 13 22 54 96 93 165
39 69 80 142 92 163 21 37 85 151 109 192 40 70 128 226 147 260 26 47 137
243 190 335 21 36 46 80 56 98 50 87 105 183 137 237 19 33 43 75 53 93 56 96
104 182 126 221 14 24 61 104 104 178 43 75 79 137 79 140 0 3 9 17 19 32 11
14 30 47 44 71 13 25 40 73 60 108 50 84 105 179 129 222 11 19 29 47 39 62
11 14 19 28 19 31 0 3 37 67 82 143 110 188 136 233 202 348 31 54 66 111 76
126 11 16 20 31 20 35 0 3 14 26 30 50 17 24 30 47 30 50 0 4 26 50 58 103 32
54 92 153 132 222 87 147 240 404 281 473 16 27 29 51 29 54 0 3 8 17 19 31
10 15 28 43 39 62 10 19 44 76 74 125 66 110 229 382 244 410 6 11 36 61 66
110 44 72 386 642 498 830 14 23 86 142 160 264 74 122 140 230 145 239 6 10
21 35 35 57 14 22 32 52 40 66 13 22 240 397 305 503 11 18 47 77 80 132 32
54 79 131 104 169 24 39 52 84 61 100 10 17 48 80 85 140 113 182 203 328 228
370 13 22 54 90 92 150 37 61 83 135 102 165 18 30 65 105 102 165 38 61 77
125 87 144 l18 34 19 -44 c11 -24 33 -80 49 -124z m-8042 -290 c67 -82 166
-203 219 -269 53 -65 107 -133 121 -151 24 -31 121 -152 255 -315 139 -170
231 -284 255 -315 23 -31 53 -68 195 -241 27 -34 75 -93 105 -132 30 -39 58
-71 62 -71 3 -1 78 42 165 95 87 53 178 109 203 124 25 15 117 71 205 125 88
54 172 105 186 114 15 9 55 33 90 54 35 21 107 65 159 97 52 32 122 75 155 95
33 19 130 78 215 131 85 52 200 122 255 155 55 33 165 99 245 148 l145 88 3
-3210 2 -3210 -21 -36 c-37 -62 -151 -253 -186 -313 -18 -32 -49 -86 -69 -120
-20 -35 -44 -76 -54 -93 -10 -16 -60 -104 -112 -195 -52 -91 -118 -205 -147
-254 -28 -49 -51 -90 -51 -91 0 -1 -22 -40 -48 -86 -27 -46 -54 -93 -60 -104
-6 -11 -37 -65 -68 -120 -31 -55 -69 -122 -84 -150 -15 -27 -37 -68 -50 -90
-32 -57 -167 -299 -203 -365 -16 -30 -43 -79 -58 -107 -16 -29 -43 -79 -61
-110 -17 -32 -46 -85 -63 -118 -18 -33 -47 -87 -65 -120 -18 -33 -53 -98 -77
-145 -25 -47 -58 -107 -73 -135 -15 -27 -50 -93 -77 -145 -28 -52 -74 -140
-103 -195 -29 -55 -70 -134 -91 -175 -64 -127 -55 -127 -135 2 -99 158 -116
188 -241 418 -123 226 -249 491 -373 780 -15 36 -39 92 -53 125 -33 77 -78
191 -129 330 -22 61 -50 137 -62 170 -51 136 -192 591 -255 820 -85 312 -192
795 -225 1015 -8 52 -23 151 -34 220 -59 368 -96 737 -122 1235 -6 105 -10
1210 -10 2649 l0 2469 49 -64 c27 -35 104 -131 171 -214z m11952 -4632 l-2
-2843 -1296 0 -1295 0 27 48 c92 163 213 382 264 477 14 28 44 84 67 125 317
589 691 1341 1007 2030 224 487 291 638 445 998 16 37 42 99 59 137 16 39 47
111 67 160 20 50 50 120 66 156 16 36 29 69 29 74 0 5 13 38 29 74 15 36 42
100 58 141 17 41 44 109 61 150 17 41 47 118 67 170 20 52 47 122 60 155 31
78 83 215 129 340 20 55 50 134 67 175 16 41 29 80 29 86 0 6 14 44 30 84 17
40 30 82 30 93 0 11 1 18 3 16 1 -2 1 -1283 -1 -2846z m-7 -6325 c-7 -3520 -2
-3261 -66 -3548 -57 -251 -178 -632 -258 -813 -144 -321 -179 -393 -283 -587
-17 -30 -37 -68 -46 -85 -9 -16 -38 -66 -65 -110 -27 -44 -59 -96 -69 -115
-40 -70 -234 -355 -320 -469 -15 -20 -35 -47 -45 -61 -17 -24 -107 -137 -224
-280 -93 -114 -312 -351 -450 -486 -389 -379 -758 -649 -1065 -779 -101 -42
-103 -43 -230 -44 l-129 -2 -90 57 c-115 72 -343 241 -480 355 -117 98 -488
417 -550 474 -44 39 -156 141 -250 225 -93 84 -194 176 -224 204 -492 462
-948 902 -1211 1167 -665 672 -1063 1108 -1130 1239 l-19 37 62 13 c313 65
979 642 1957 1695 185 199 255 277 553 610 138 155 651 750 792 920 324 388
475 575 624 767 36 46 88 112 115 148 l51 65 -3 270 c-2 149 -6 278 -8 288 -8
26 -21 12 -29 -30 -15 -84 -126 -271 -352 -592 -68 -97 -258 -349 -400 -531
-65 -83 -297 -369 -392 -484 -576 -693 -1218 -1389 -1796 -1946 -634 -610
-1157 -987 -1411 -1015 l-61 -7 -146 76 c-80 42 -151 76 -157 76 -17 0 -7 -47
25 -114 33 -69 152 -248 264 -395 47 -62 97 -128 111 -146 168 -222 697 -832
975 -1125 39 -41 122 -129 185 -195 125 -133 627 -634 760 -760 317 -300 588
-535 950 -823 54 -43 277 -203 355 -254 142 -93 307 -185 455 -251 32 -14
-334 -16 -4119 -16 l-4154 -1 7 1463 c5 868 11 1488 17 1527 15 97 47 195 80
239 50 70 67 74 314 82 418 13 709 48 1100 130 242 51 535 131 698 190 43 16
84 29 90 29 5 0 47 14 91 31 45 17 122 47 171 66 245 93 753 334 945 448 30
18 108 63 173 101 64 38 132 78 150 88 30 18 446 294 492 326 175 124 360 264
540 409 153 124 306 250 320 265 6 6 48 45 95 86 391 344 878 833 1275 1280
198 224 540 634 705 847 89 115 358 469 375 493 11 15 81 112 155 215 306 424
585 838 859 1275 57 91 118 188 136 215 33 50 310 509 347 575 11 19 43 74 72
122 l51 88 1373 0 1373 0 -6 -3212z m-8 -7375 c-2 -2 -588 -2 -1303 -1 -1294
3 -1299 3 -1239 22 33 11 114 45 180 76 306 144 602 362 944 695 117 114 367
393 457 510 16 22 60 78 96 125 66 87 318 463 318 475 0 4 8 19 19 33 10 15
33 54 51 87 18 33 46 85 63 115 163 297 319 695 388 984 l24 99 3 -1608 c1
-885 1 -1610 -1 -1612z"/>
<path d="M10058 2699 c-43 -39 -78 -76 -78 -82 0 -7 24 -37 53 -67 28 -31 92
-98 141 -150 48 -52 92 -96 97 -98 4 -2 22 7 39 20 49 36 147 33 219 -7 65
-36 115 -100 132 -167 25 -105 -36 -217 -145 -269 -76 -36 -132 -37 -204 -4
l-52 24 -38 -52 c-75 -104 -94 -136 -87 -148 10 -15 106 -58 170 -75 207 -56
447 64 549 276 41 84 41 86 41 201 0 116 0 116 -42 200 -56 113 -122 179 -233
233 -80 38 -91 41 -187 44 l-101 4 -91 94 c-50 52 -95 94 -99 94 -4 0 -42 -32
-84 -71z"/>
<path d="M493 19069 c-57 -28 -89 -69 -109 -135 -13 -45 -15 -102 -12 -341 l3
-288 27 -51 c37 -71 102 -104 202 -104 99 1 159 34 198 109 l28 53 0 297 c0
163 -4 312 -10 331 -13 49 -66 109 -114 131 -58 26 -158 25 -213 -2z m162
-150 c6 -6 11 -121 13 -291 3 -315 1 -328 -61 -328 -43 0 -55 10 -67 51 -11
38 -12 500 -1 539 12 44 83 61 116 29z"/>
<path d="M370 17180 l0 -460 75 0 75 0 2 283 c3 237 5 273 14 227 6 -30 25
-104 42 -165 17 -60 46 -163 64 -227 l32 -118 78 0 78 0 0 460 0 460 -70 0
-70 0 -1 -227 0 -228 -23 80 c-13 44 -28 100 -35 125 -6 25 -23 91 -38 148
l-27 102 -98 0 -98 0 0 -460z"/>
<path d="M14170 9173 c0 -35 11 -107 91 -599 16 -99 29 -195 29 -212 0 -61 2
-62 125 -62 100 0 114 2 119 18 7 24 44 247 50 307 3 28 17 118 30 200 29 176
56 355 56 373 0 8 -21 12 -73 12 l-73 0 -22 -142 c-27 -183 -71 -476 -74 -508
-2 -14 -12 34 -21 105 -10 72 -32 212 -48 312 -16 100 -29 193 -29 207 0 26
-1 26 -80 26 l-80 0 0 -37z"/>
<path d="M14340 7320 l0 -461 78 3 77 3 3 458 2 457 -80 0 -80 0 0 -460z"/>
<path d="M14170 6303 c0 -36 18 -153 90 -599 17 -99 30 -195 30 -213 0 -66 8
-71 130 -71 95 0 109 2 113 18 6 19 41 241 121 769 23 145 28 133 -57 133
l-73 0 -23 -152 c-12 -84 -33 -225 -46 -313 -13 -88 -26 -171 -27 -185 -2 -14
-12 34 -21 105 -10 72 -32 212 -48 312 -16 100 -29 193 -29 207 0 26 -1 26
-80 26 l-80 0 0 -37z"/>
<path d="M14290 4863 c0 -21 -13 -114 -29 -208 -57 -332 -90 -541 -97 -608
l-6 -68 73 3 73 3 15 83 14 82 73 0 c81 0 74 8 90 -95 12 -78 7 -75 95 -75 52
0 79 4 79 11 0 17 -56 369 -117 742 l-28 167 -117 0 -118 0 0 -37z m150 -429
c11 -66 20 -126 20 -132 0 -8 -19 -12 -55 -12 -30 0 -55 3 -55 6 0 4 9 59 19
123 11 64 23 150 27 191 l8 75 8 -65 c5 -36 18 -119 28 -186z"/>
<path d="M14180 3010 l0 -461 73 3 72 3 5 280 c5 257 6 276 18 225 7 -30 26
-102 42 -160 16 -58 44 -160 62 -227 l33 -123 78 0 77 0 0 460 0 460 -70 0
-70 0 -2 -222 -3 -223 -18 70 c-10 39 -34 126 -52 195 -19 69 -37 137 -40 153
l-5 27 -100 0 -100 0 0 -460z"/>
<path d="M14180 1960 l0 -70 75 0 75 0 0 -390 0 -390 80 0 80 0 0 390 0 390
75 0 75 0 0 70 0 70 -230 0 -230 0 0 -70z"/>
</g>
</svg>
